<svg width="16" height="16" viewBox="0 0 16 16" fill="none" xmlns="http://www.w3.org/2000/svg">
<path d="M6.66665 10L10.1266 8.00001L6.66665 6.00001V10ZM14.3733 4.78001C14.46 5.09334 14.52 5.51334 14.56 6.04668C14.6066 6.58001 14.6266 7.04001 14.6266 7.44001L14.6666 8.00001C14.6666 9.46001 14.56 10.5333 14.3733 11.22C14.2066 11.82 13.82 12.2067 13.22 12.3733C12.9066 12.46 12.3333 12.52 11.4533 12.56C10.5866 12.6067 9.79331 12.6267 9.05998 12.6267L7.99998 12.6667C5.20665 12.6667 3.46665 12.56 2.77998 12.3733C2.17998 12.2067 1.79331 11.82 1.62665 11.22C1.53998 10.9067 1.47998 10.4867 1.43998 9.95334C1.39331 9.42001 1.37331 8.96001 1.37331 8.56001L1.33331 8.00001C1.33331 6.54001 1.43998 5.46668 1.62665 4.78001C1.79331 4.18001 2.17998 3.79334 2.77998 3.62668C3.09331 3.54001 3.66665 3.48001 4.54665 3.44001C5.41331 3.39334 6.20665 3.37334 6.93998 3.37334L7.99998 3.33334C10.7933 3.33334 12.5333 3.44001 13.22 3.62668C13.82 3.79334 14.2066 4.18001 14.3733 4.78001Z" fill="black"/>
</svg>
