<svg width="16" height="16" viewBox="0 0 16 16" fill="none" xmlns="http://www.w3.org/2000/svg">
<path d="M5.19998 1.33334H10.8C12.9333 1.33334 14.6666 3.06668 14.6666 5.20001V10.8C14.6666 11.8255 14.2593 12.809 13.5341 13.5342C12.809 14.2593 11.8255 14.6667 10.8 14.6667H5.19998C3.06665 14.6667 1.33331 12.9333 1.33331 10.8V5.20001C1.33331 4.17451 1.74069 3.191 2.46583 2.46586C3.19097 1.74072 4.17448 1.33334 5.19998 1.33334ZM5.06665 2.66668C4.43013 2.66668 3.81968 2.91953 3.36959 3.36962C2.9195 3.81971 2.66665 4.43016 2.66665 5.06668V10.9333C2.66665 12.26 3.73998 13.3333 5.06665 13.3333H10.9333C11.5698 13.3333 12.1803 13.0805 12.6304 12.6304C13.0805 12.1803 13.3333 11.5699 13.3333 10.9333V5.06668C13.3333 3.74001 12.26 2.66668 10.9333 2.66668H5.06665ZM11.5 3.66668C11.721 3.66668 11.933 3.75447 12.0892 3.91075C12.2455 4.06703 12.3333 4.279 12.3333 4.50001C12.3333 4.72102 12.2455 4.93299 12.0892 5.08927C11.933 5.24555 11.721 5.33334 11.5 5.33334C11.279 5.33334 11.067 5.24555 10.9107 5.08927C10.7544 4.93299 10.6666 4.72102 10.6666 4.50001C10.6666 4.279 10.7544 4.06703 10.9107 3.91075C11.067 3.75447 11.279 3.66668 11.5 3.66668ZM7.99998 4.66668C8.88403 4.66668 9.73188 5.01787 10.357 5.64299C10.9821 6.26811 11.3333 7.11596 11.3333 8.00001C11.3333 8.88407 10.9821 9.73191 10.357 10.357C9.73188 10.9822 8.88403 11.3333 7.99998 11.3333C7.11592 11.3333 6.26808 10.9822 5.64296 10.357C5.01784 9.73191 4.66665 8.88407 4.66665 8.00001C4.66665 7.11596 5.01784 6.26811 5.64296 5.64299C6.26808 5.01787 7.11592 4.66668 7.99998 4.66668ZM7.99998 6.00001C7.46955 6.00001 6.96084 6.21072 6.58577 6.5858C6.21069 6.96087 5.99998 7.46958 5.99998 8.00001C5.99998 8.53044 6.21069 9.03915 6.58577 9.41422C6.96084 9.7893 7.46955 10 7.99998 10C8.53041 10 9.03912 9.7893 9.41419 9.41422C9.78927 9.03915 9.99998 8.53044 9.99998 8.00001C9.99998 7.46958 9.78927 6.96087 9.41419 6.5858C9.03912 6.21072 8.53041 6.00001 7.99998 6.00001Z" fill="black"/>
</svg>
