<svg width="16" height="16" viewBox="0 0 16 16" fill="none" xmlns="http://www.w3.org/2000/svg">
<g clip-path="url(#clip0_2003_155)">
<path d="M11.52 6.18656C11.6083 6.09178 11.6564 5.96642 11.6541 5.83688C11.6519 5.70735 11.5994 5.58376 11.5078 5.49215C11.4162 5.40054 11.2926 5.34807 11.163 5.34578C11.0335 5.3435 10.9081 5.39158 10.8134 5.4799L6.83335 9.4599L5.18669 7.81323C5.0919 7.72491 4.96654 7.67683 4.837 7.67911C4.70747 7.6814 4.58388 7.73388 4.49227 7.82548C4.40066 7.91709 4.34819 8.04068 4.3459 8.17022C4.34362 8.29975 4.3917 8.42511 4.48002 8.5199L6.48002 10.5199C6.57377 10.6135 6.70085 10.6661 6.83335 10.6661C6.96585 10.6661 7.09294 10.6135 7.18669 10.5199L11.52 6.18656Z" fill="black"/>
<path d="M8.00002 0.666504C12.05 0.666504 15.3334 3.94984 15.3334 7.99984C15.3334 12.0498 12.05 15.3332 8.00002 15.3332C3.95002 15.3332 0.666687 12.0498 0.666687 7.99984C0.666687 3.94984 3.95002 0.666504 8.00002 0.666504ZM1.66669 7.99984C1.66669 9.67954 2.33395 11.2904 3.52168 12.4782C4.70941 13.6659 6.32032 14.3332 8.00002 14.3332C9.67973 14.3332 11.2906 13.6659 12.4784 12.4782C13.6661 11.2904 14.3334 9.67954 14.3334 7.99984C14.3334 6.32013 13.6661 4.70922 12.4784 3.52149C11.2906 2.33376 9.67973 1.6665 8.00002 1.6665C6.32032 1.6665 4.70941 2.33376 3.52168 3.52149C2.33395 4.70922 1.66669 6.32013 1.66669 7.99984Z" fill="black"/>
</g>
<defs>
<clipPath id="clip0_2003_155">
<rect width="16" height="16" fill="white"/>
</clipPath>
</defs>
</svg>
