<svg width="16" height="16" viewBox="0 0 16 16" fill="none" xmlns="http://www.w3.org/2000/svg">
<path d="M12.52 10.52C12.4262 10.6137 12.2991 10.6663 12.1666 10.6663C12.0341 10.6663 11.9071 10.6137 11.8133 10.52L7.99997 6.70738L4.18664 10.52C4.14024 10.5664 4.08515 10.6033 4.02453 10.6284C3.9639 10.6535 3.89893 10.6664 3.83331 10.6664C3.76769 10.6664 3.70271 10.6535 3.64208 10.6284C3.58146 10.6033 3.52637 10.5664 3.47997 10.52C3.43357 10.4736 3.39677 10.4186 3.37165 10.3579C3.34654 10.2973 3.33362 10.2323 3.33362 10.1667C3.33362 10.1011 3.34654 10.0361 3.37165 9.97549C3.39677 9.91487 3.43357 9.85978 3.47997 9.81338L7.64664 5.64672C7.74039 5.55308 7.86747 5.50049 7.99997 5.50049C8.13247 5.50049 8.25956 5.55308 8.35331 5.64672L12.52 9.81338C12.6136 9.90713 12.6662 10.0342 12.6662 10.1667C12.6662 10.2992 12.6136 10.4263 12.52 10.52Z" fill="black"/>
</svg>
