<svg width="16" height="16" viewBox="0 0 16 16" fill="none" xmlns="http://www.w3.org/2000/svg">
<g clip-path="url(#clip0_2003_151)">
<path d="M1.16667 2H14.8333C15.4773 2 16 2.52267 16 3.16667V12.5C16 12.8094 15.8771 13.1062 15.6583 13.325C15.4395 13.5438 15.1428 13.6667 14.8333 13.6667H1.16667C0.857247 13.6667 0.560501 13.5438 0.341709 13.325C0.122916 13.1062 0 12.8094 0 12.5L0 3.16667C0 2.52267 0.522667 2 1.16667 2ZM1 4.94133V12.5C1 12.592 1.07467 12.6667 1.16667 12.6667H14.8333C14.8775 12.6667 14.9199 12.6491 14.9512 12.6179C14.9824 12.5866 15 12.5442 15 12.5V4.94133L8.65333 9.23C8.25867 9.49667 7.74133 9.49667 7.34667 9.23L1 4.94133ZM1 3.16667V3.73467L7.90667 8.40133C7.93423 8.41996 7.96673 8.42992 8 8.42992C8.03327 8.42992 8.06577 8.41996 8.09333 8.40133L15 3.73467V3.16667C15 3.12246 14.9824 3.08007 14.9512 3.04882C14.9199 3.01756 14.8775 3 14.8333 3H1.16667C1.12246 3 1.08007 3.01756 1.04882 3.04882C1.01756 3.08007 1 3.12246 1 3.16667Z" fill="black"/>
</g>
<defs>
<clipPath id="clip0_2003_151">
<rect width="16" height="16" fill="white"/>
</clipPath>
</defs>
</svg>
