<svg width="16" height="16" viewBox="0 0 16 16" fill="none" xmlns="http://www.w3.org/2000/svg">
<path d="M7.99998 8.99984C8.44201 8.99984 8.86593 8.82424 9.17849 8.51168C9.49105 8.19912 9.66665 7.7752 9.66665 7.33317C9.66665 6.89114 9.49105 6.46722 9.17849 6.15466C8.86593 5.8421 8.44201 5.6665 7.99998 5.6665C7.55795 5.6665 7.13403 5.8421 6.82147 6.15466C6.50891 6.46722 6.33331 6.89114 6.33331 7.33317C6.33331 7.7752 6.50891 8.19912 6.82147 8.51168C7.13403 8.82424 7.55795 8.99984 7.99998 8.99984Z" fill="black"/>
<path d="M12.714 2.286H12.7147C15.318 4.88933 15.318 9.11066 12.7147 11.714L9.11267 15.316C8.81765 15.6107 8.41769 15.7763 8.00067 15.7763C7.58365 15.7763 7.18368 15.6107 6.88867 15.316L3.30533 11.7327L3.28667 11.714C0.683334 9.11066 0.683334 4.88933 3.28667 2.286C5.89 -0.317337 10.1107 -0.317337 12.714 2.286ZM3.99333 2.99266C2.93079 4.05535 2.33388 5.49724 2.33388 7C2.33388 8.50276 2.93079 9.94398 3.99333 11.0067L4.00867 11.0227L4.01 11.024L7.59533 14.6093C7.70279 14.7164 7.84831 14.7765 8 14.7765C8.1517 14.7765 8.29721 14.7164 8.40467 14.6093L12.0067 11.0067C13.0567 9.94139 13.6429 8.50418 13.6375 7.00842C13.6322 5.51267 13.0356 4.0797 11.978 3.022C10.9204 1.96429 9.48746 1.36763 7.99171 1.36214C6.49596 1.35664 5.0587 1.94275 3.99333 2.99266Z" fill="black"/>
</svg>
