<svg width="16" height="16" viewBox="0 0 16 16" fill="none" xmlns="http://www.w3.org/2000/svg">
<path d="M9.84535 2.64012L9.84402 2.63678C9.80338 2.46158 9.75489 2.28829 9.69869 2.11745C9.61202 1.85478 9.83869 1.58412 10.1 1.67078C10.2934 1.73478 10.4834 1.80767 10.67 1.88945L10.6767 1.89278C12.0782 2.50779 13.2255 3.58623 13.926 4.94707C14.6265 6.3079 14.8375 7.86829 14.5236 9.3663C14.2097 10.8643 13.39 12.2087 12.2022 13.1739C11.0143 14.139 9.53056 14.6662 8.00002 14.6668C6.70431 14.6672 5.43655 14.2901 4.35178 13.5815C3.26701 12.8728 2.41225 11.8635 1.89202 10.6768L1.88935 10.6701C1.80757 10.4836 1.73439 10.2934 1.67002 10.1001C1.58335 9.83878 1.85469 9.61212 2.11669 9.69878C2.28824 9.75478 2.46158 9.80323 2.63669 9.84412L2.63935 9.84545C3.5195 10.0503 4.43454 10.0537 5.31617 9.85533C6.19781 9.657 7.02325 9.26209 7.73089 8.70008C8.43853 8.13808 9.01009 7.42348 9.40289 6.60965C9.79568 5.79582 9.99958 4.90378 9.99935 4.00012C10.0001 3.54239 9.9484 3.08609 9.84535 2.64012ZM11 4.00012C11 7.86612 7.86602 11.0001 4.00002 11.0001C3.71558 11.0001 3.43558 10.9834 3.16002 10.9501C3.607 11.6817 4.21414 12.3023 4.93572 12.7652C5.6573 13.2281 6.4745 13.5212 7.32579 13.6226C8.17708 13.7239 9.04026 13.6307 9.85034 13.3501C10.6604 13.0695 11.3963 12.6088 12.0025 12.0025C12.6087 11.3963 13.0694 10.6605 13.35 9.85043C13.6306 9.04036 13.7238 8.17718 13.6225 7.32589C13.5211 6.4746 13.228 5.65739 12.7651 4.93581C12.3022 4.21424 11.6816 3.6071 10.95 3.16012C10.9834 3.43567 11 3.71612 11 4.00012Z" fill="black"/>
</svg>
