<svg width="16" height="16" viewBox="0 0 16 16" fill="none" xmlns="http://www.w3.org/2000/svg">
<path d="M12.8537 7.35366C12.8073 7.40014 12.7521 7.43702 12.6914 7.46218C12.6307 7.48735 12.5657 7.5003 12.5 7.5003C12.4343 7.5003 12.3692 7.48735 12.3085 7.46218C12.2478 7.43702 12.1927 7.40014 12.1462 7.35366L8.49997 3.70678V13.4999C8.49997 13.6325 8.44729 13.7597 8.35353 13.8535C8.25976 13.9472 8.13258 13.9999 7.99997 13.9999C7.86736 13.9999 7.74019 13.9472 7.64642 13.8535C7.55265 13.7597 7.49997 13.6325 7.49997 13.4999V3.70678L3.85372 7.35366C3.7599 7.44748 3.63265 7.50018 3.49997 7.50018C3.36729 7.50018 3.24004 7.44748 3.14622 7.35366C3.0524 7.25984 2.99969 7.13259 2.99969 6.99991C2.99969 6.86722 3.0524 6.73998 3.14622 6.64615L7.64622 2.14615C7.69266 2.09967 7.7478 2.06279 7.8085 2.03763C7.8692 2.01246 7.93427 1.99951 7.99997 1.99951C8.06568 1.99951 8.13074 2.01246 8.19144 2.03763C8.25214 2.06279 8.30729 2.09967 8.35372 2.14615L12.8537 6.64615C12.9002 6.69259 12.9371 6.74774 12.9623 6.80843C12.9874 6.86913 13.0004 6.9342 13.0004 6.99991C13.0004 7.06561 12.9874 7.13068 12.9623 7.19138C12.9371 7.25207 12.9002 7.30722 12.8537 7.35366Z" fill="black"/>
</svg>
