<svg width="88" height="88" viewBox="0 0 88 88" fill="none" xmlns="http://www.w3.org/2000/svg">
<path d="M11 77C22 77 36.6667 73.3334 36.6667 47.6667V18.3334C36.6667 13.75 33.8947 10.9377 29.3334 11H14.6667C10.0834 11 7.33337 13.75 7.33337 18.2307V40.3334C7.33337 44.9167 10.0834 47.6667 14.6667 47.6667C18.3334 47.6667 18.3334 47.6667 18.3334 51.3334V55C18.3334 58.6667 14.6667 62.3334 11 62.3334C7.33337 62.3334 7.33337 62.3627 7.33337 66.1137V73.3334C7.33337 77 7.33337 77 11 77Z" stroke="#C75E90" stroke-width="2" stroke-linecap="round" stroke-linejoin="round"/>
<path d="M55 77C66 77 80.6667 73.3334 80.6667 47.6667V18.3334C80.6667 13.75 77.891 10.9377 73.3334 11H58.6667C54.0834 11 51.3334 13.75 51.3334 18.2307V40.3334C51.3334 44.9167 54.0834 47.6667 58.6667 47.6667H61.4167C61.4167 55.9167 62.3334 62.3334 51.3334 62.3334V73.3334C51.3334 77 51.3334 77 55 77Z" stroke="#C75E90" stroke-width="2" stroke-linecap="round" stroke-linejoin="round"/>
</svg>
