<svg width="16" height="16" viewBox="0 0 16 16" fill="none" xmlns="http://www.w3.org/2000/svg">
<path fill-rule="evenodd" clip-rule="evenodd" d="M3.45815 2.47682C3.53678 2.42947 3.6263 2.40322 3.71805 2.40061C3.8098 2.39799 3.90068 2.4191 3.98188 2.46189L13.5819 7.52855C13.6676 7.57389 13.7394 7.64175 13.7894 7.72482C13.8394 7.80789 13.8659 7.90304 13.8659 8.00002C13.8659 8.097 13.8394 8.19215 13.7894 8.27522C13.7394 8.35829 13.6676 8.42615 13.5819 8.47149L3.98188 13.5382C3.90063 13.5809 3.80971 13.602 3.71792 13.5994C3.62613 13.5967 3.53658 13.5704 3.45794 13.523C3.3793 13.4756 3.31424 13.4087 3.26905 13.3287C3.22387 13.2488 3.20008 13.1585 3.20001 13.0667V2.93335C3.20007 2.84147 3.22386 2.75115 3.26909 2.67117C3.31431 2.59118 3.37944 2.52423 3.45815 2.47682ZM4.26668 3.81762V12.1824L12.1909 8.00002L4.26668 3.81762Z" fill="black"/>
</svg>
