<svg width="16" height="16" viewBox="0 0 16 16" fill="none" xmlns="http://www.w3.org/2000/svg">
<g clip-path="url(#clip0_2003_138)">
<path fill-rule="evenodd" clip-rule="evenodd" d="M8 0C8.14145 0 8.2771 0.0561903 8.37712 0.15621C8.47714 0.256229 8.53333 0.391885 8.53333 0.533333V2.66667C8.53333 2.80812 8.47714 2.94377 8.37712 3.04379C8.2771 3.14381 8.14145 3.2 8 3.2C7.85855 3.2 7.7229 3.14381 7.62288 3.04379C7.52286 2.94377 7.46667 2.80812 7.46667 2.66667V0.533333C7.46667 0.391885 7.52286 0.256229 7.62288 0.15621C7.7229 0.0561903 7.85855 0 8 0ZM2.34347 2.34347C2.44348 2.24348 2.57911 2.18731 2.72053 2.18731C2.86195 2.18731 2.99759 2.24348 3.0976 2.34347L4.60587 3.85067C4.70302 3.95125 4.75677 4.08598 4.75556 4.22581C4.75434 4.36565 4.69825 4.49942 4.59937 4.5983C4.50049 4.69719 4.36672 4.75328 4.22688 4.75449C4.08704 4.75571 3.95232 4.70195 3.85173 4.6048L2.34347 3.0976C2.24348 2.99759 2.18731 2.86195 2.18731 2.72053C2.18731 2.57911 2.24348 2.44348 2.34347 2.34347ZM0.533333 7.46667C0.391885 7.46667 0.256229 7.52286 0.15621 7.62288C0.0561903 7.7229 0 7.85855 0 8C0 8.14145 0.0561903 8.2771 0.15621 8.37712C0.256229 8.47714 0.391885 8.53333 0.533333 8.53333H2.66667C2.80812 8.53333 2.94377 8.47714 3.04379 8.37712C3.14381 8.2771 3.2 8.14145 3.2 8C3.2 7.85855 3.14381 7.7229 3.04379 7.62288C2.94377 7.52286 2.80812 7.46667 2.66667 7.46667H0.533333ZM2.34347 13.6565C2.24348 13.5565 2.18731 13.4209 2.18731 13.2795C2.18731 13.138 2.24348 13.0024 2.34347 12.9024L3.85173 11.3941C3.90093 11.3432 3.95978 11.3026 4.02485 11.2746C4.08992 11.2467 4.1599 11.2319 4.23072 11.2313C4.30154 11.2307 4.37176 11.2442 4.43731 11.271C4.50285 11.2978 4.5624 11.3374 4.61248 11.3875C4.66255 11.4376 4.70216 11.4971 4.72897 11.5627C4.75579 11.6282 4.76928 11.6985 4.76867 11.7693C4.76805 11.8401 4.75334 11.9101 4.72539 11.9752C4.69744 12.0402 4.65681 12.0991 4.60587 12.1483L3.0976 13.6565C2.99759 13.7565 2.86195 13.8127 2.72053 13.8127C2.57911 13.8127 2.44348 13.7565 2.34347 13.6565ZM13.3333 7.46667C13.1919 7.46667 13.0562 7.52286 12.9562 7.62288C12.8562 7.7229 12.8 7.85855 12.8 8C12.8 8.14145 12.8562 8.2771 12.9562 8.37712C13.0562 8.47714 13.1919 8.53333 13.3333 8.53333H15.4667C15.6081 8.53333 15.7438 8.47714 15.8438 8.37712C15.9438 8.2771 16 8.14145 16 8C16 7.85855 15.9438 7.7229 15.8438 7.62288C15.7438 7.52286 15.6081 7.46667 15.4667 7.46667H13.3333ZM11.3941 4.60587C11.2941 4.50585 11.238 4.37022 11.238 4.2288C11.238 4.08738 11.2941 3.95175 11.3941 3.85173L12.9024 2.34347C12.9516 2.29253 13.0104 2.2519 13.0755 2.22395C13.1406 2.19599 13.2106 2.18128 13.2814 2.18067C13.3522 2.18005 13.4224 2.19355 13.488 2.22036C13.5535 2.24718 13.6131 2.28678 13.6631 2.33686C13.7132 2.38693 13.7528 2.44648 13.7796 2.51202C13.8065 2.57757 13.8199 2.6478 13.8193 2.71861C13.8187 2.78943 13.804 2.85941 13.7761 2.92448C13.7481 2.98955 13.7075 3.0484 13.6565 3.0976L12.1493 4.60587C12.0493 4.70585 11.9137 4.76202 11.7723 4.76202C11.6308 4.76202 11.4941 4.70585 11.3941 4.60587ZM8.53333 13.3333C8.53333 13.1919 8.47714 13.0562 8.37712 12.9562C8.2771 12.8562 8.14145 12.8 8 12.8C7.85855 12.8 7.7229 12.8562 7.62288 12.9562C7.52286 13.0562 7.46667 13.1919 7.46667 13.3333V15.4667C7.46667 15.6081 7.52286 15.7438 7.62288 15.8438C7.7229 15.9438 7.85855 16 8 16C8.14145 16 8.2771 15.9438 8.37712 15.8438C8.47714 15.7438 8.53333 15.6081 8.53333 15.4667V13.3333ZM11.3941 11.3941C11.4941 11.2941 11.6298 11.238 11.7712 11.238C11.9126 11.238 12.0483 11.2941 12.1483 11.3941L13.6565 12.9024C13.7075 12.9516 13.7481 13.0104 13.7761 13.0755C13.804 13.1406 13.8187 13.2106 13.8193 13.2814C13.8199 13.3522 13.8065 13.4224 13.7796 13.488C13.7528 13.5535 13.7132 13.6131 13.6631 13.6631C13.6131 13.7132 13.5535 13.7528 13.488 13.7796C13.4224 13.8065 13.3522 13.8199 13.2814 13.8193C13.2106 13.8187 13.1406 13.804 13.0755 13.7761C13.0104 13.7481 12.9516 13.7075 12.9024 13.6565L11.3941 12.1483C11.2941 12.0483 11.238 11.9126 11.238 11.7712C11.238 11.6298 11.2941 11.4941 11.3941 11.3941ZM5.86667 8C5.86667 7.43421 6.09143 6.89158 6.49151 6.49151C6.89158 6.09143 7.43421 5.86667 8 5.86667C8.5658 5.86667 9.10842 6.09143 9.50849 6.49151C9.90857 6.89158 10.1333 7.43421 10.1333 8C10.1333 8.5658 9.90857 9.10842 9.50849 9.50849C9.10842 9.90857 8.5658 10.1333 8 10.1333C7.43421 10.1333 6.89158 9.90857 6.49151 9.50849C6.09143 9.10842 5.86667 8.5658 5.86667 8ZM8 4.8C7.15131 4.8 6.33738 5.13714 5.73726 5.73726C5.13714 6.33738 4.8 7.15131 4.8 8C4.8 8.84869 5.13714 9.66263 5.73726 10.2627C6.33738 10.8629 7.15131 11.2 8 11.2C8.84869 11.2 9.66263 10.8629 10.2627 10.2627C10.8629 9.66263 11.2 8.84869 11.2 8C11.2 7.15131 10.8629 6.33738 10.2627 5.73726C9.66263 5.13714 8.84869 4.8 8 4.8Z" fill="black"/>
</g>
<defs>
<clipPath id="clip0_2003_138">
<rect width="16" height="16" fill="white"/>
</clipPath>
</defs>
</svg>
